<svg id="Calque_2" xmlns="http://www.w3.org/2000/svg" viewBox="0 0 1920 1080"><defs><style>.cls-1{fill:#e6d58e;}</style></defs><circle class="cls-1" cx="1180.66" cy="433.74" r="12.46" transform="translate(190.99 1210.04) rotate(-58.28)"/><path class="cls-1" d="M1433.77,424.62c-22.45-5.39-94.83-21.17-147.33-6.94-19.47-17.58-59.07-28.44-90.31-29.71-42.45-123.93-158.7-207.06-289.94-207.06-114.88,0-215.18,63.55-267.63,157.34-25.85-6.45-50.19-11-73.34-13.38-4.29-.44-8.15,2.4-8.97,6.7-.74,3.9,1.6,7.73,5.27,9.26,11.14,4.65,33.49,14.5,61.49,29.48-14.96,36.08-23.24,75.6-23.24,117.03,0,44.59,9.58,86.99,26.78,125.25l-18.01,7c-3.43,1.24-5.63,4.51-5.46,8.16,.17,3.64,2.65,6.69,6.18,7.59,4.29,1.1,17.12,4.29,33.49,8.35,53.49,89.79,151.55,150.09,263.44,150.09,54.11,0,105.41-14.36,149.99-39.7,29.51-9.15,50.87-27.22,64.44-48.88,2.05-2.03,4.07-4.09,6.06-6.17l.25,.25c55.21-54.79,72.21-112.36,82.35-166.42,9.64-51.33,19.17-75.98,69.98-96.51,48.02-19.41,128.01-2.05,150.9,3.35,4.05,.96,8.12-1.45,9.24-5.46h0c1.18-4.23-1.37-8.59-5.64-9.62ZM906.19,193.87c124.2,0,234.4,77.73,276.22,194.1-79.94,3.06-89.27,60.82-93.82,89.03-.43,2.64-.82,5.09-1.24,7.31-3.18,16.95-13.79,27.8-19.52,32.57-27.9-21.37-67.35-44-123.37-66.87l-1.14-.47c-117.79-48.08-211.98-86.52-291.79-107.94,50.67-88.21,145.85-147.74,254.66-147.74Zm-291.46,154.7c5.4,1.16,10.87,2.43,16.42,3.78-.62,1.27-1.24,2.54-1.85,3.81-5.05-2.69-9.92-5.23-14.57-7.59Zm-2.01,138.77c0-39.18,7.74-76.58,21.73-110.79,37.47,20.83,82.91,49.97,124.79,87.32,94.78,84.5,125.74,130.78,144.32,158.53l1.1,1.52,1.49,.86c40.98,23.8,78.14,48.41,89.85,58.55,2.66,2.31,6.56,2.45,9.43,.4,4.07-2.91,4.31-8.83,.52-12.09-18.45-15.87-68.51-46.54-90.56-59.38-19.03-28.42-51.21-75.56-145.85-159.94-43.31-38.61-90.3-68.64-128.83-89.97,1.07-2.26,2.16-4.51,3.29-6.74,79.58,20.95,174.36,59.63,293.48,108.25l1.14,.46c171.59,70.04,179.84,135.1,183.8,166.36,3.02,23.83-2.68,51.19-19.19,73.2-12.85,11.77-26.71,22.41-41.44,31.74-4.11,1.7-8.42,3.23-12.98,4.51-148.72,38-213.74-15.62-239.27-50.96-15.75-21.81-38.36-28.52-50.51-32.13l-1.53-.46c-7.37-2.21-63.27-16.07-104.09-26.2-1.33-.33-2.63-.65-3.92-.97-1.39-2.5-2.75-5.03-4.07-7.57l15.39-5.98c6.05-2.35,12.62-2.98,19.02-1.81l176.6,31.59c4.2,.75,8.22-2.04,8.97-6.25,.75-4.2-2.04-8.22-6.25-8.97l-176.58-31.58c-9.19-1.67-18.66-.77-27.37,2.61l-16.56,6.44c-16.64-36.8-25.92-77.61-25.92-120.55Zm48.12,160.83c37.56,9.32,85.86,21.33,92.21,23.23l1.57,.47c11.11,3.3,29.71,8.83,42.38,26.36,21.21,29.37,67.05,70.42,157.53,70.42,13.73,0,28.5-.95,44.36-3.03-29.25,9.86-60.45,15.19-92.69,15.19-102.48,0-192.85-52.82-245.35-132.64Zm533.25-118.17c-7.79,41.52-19.47,88.84-57.85,136.03,2.55-12.53,3.04-25.21,1.51-37.29-2.77-21.88-7.47-58.9-57.71-101.98,7.74-6.99,18.83-20.03,22.5-39.61,.44-2.33,.85-4.92,1.3-7.7,4.9-30.36,12.28-76.16,85.29-76.16,.3,0,.62,0,.92,0,31.24,0,61.92,9.7,78.93,20.56-51.34,21.96-64.34,49.81-74.91,106.14Z"/></svg>